<?xml version="1.0" encoding="UTF-8" standalone="no"?>
<svg
   viewBox="0 0 56.01 59.16"
   version="1.1"
   id="svg103"
   sodipodi:docname="Maythe's Sales icon.svg"
   inkscape:export-filename="C:\Users\joann\OneDrive\Escritorio\escritorio\proyectos Ai\Maythe's Sales\Maythe's Sales icon.png"
   inkscape:export-xdpi="96"
   inkscape:export-ydpi="96"
   inkscape:version="1.1.1 (3bf5ae0d25, 2021-09-20)"
   xmlns:inkscape="http://www.inkscape.org/namespaces/inkscape"
   xmlns:sodipodi="http://sodipodi.sourceforge.net/DTD/sodipodi-0.dtd"
   xmlns="http://www.w3.org/2000/svg"
   xmlns:svg="http://www.w3.org/2000/svg">
  <sodipodi:namedview
     id="namedview105"
     pagecolor="#ffffff"
     bordercolor="#111111"
     borderopacity="1"
     inkscape:pageshadow="0"
     inkscape:pageopacity="0"
     inkscape:pagecheckerboard="1"
     showgrid="false"
     inkscape:zoom="8.0000002"
     inkscape:cx="44.249999"
     inkscape:cy="28.187499"
     inkscape:window-width="1366"
     inkscape:window-height="715"
     inkscape:window-x="-8"
     inkscape:window-y="22"
     inkscape:window-maximized="1"
     inkscape:current-layer="svg103" />
  <defs
     id="defs4">
    <style
       id="style2">.cls-1,.cls-9{fill:#101e5a;}.cls-2{fill:#090d49;}.cls-3{fill:#f1f2f3;}.cls-4,.cls-5{fill:#efefef;}.cls-5,.cls-7{opacity:0.11;}.cls-6,.cls-7{fill:#ccc;}.cls-8{fill:none;stroke-miterlimit:10;stroke-width:2px;}.cls-8,.cls-9{stroke:#101e5a;stroke-linecap:round;}.cls-9{stroke-linejoin:round;stroke-width:3px;}.cls-10{fill:#f0f1f2;}.cls-11{fill:#fff;fill-rule:evenodd;}</style>
  </defs>
  <title
     id="title6">Maythe&amp;apos;s Sales icon</title>
  <g
     id="g3437"
     transform="matrix(1.0650482,0,0,1.0752655,-1.8216748,-2.2263535)"
     inkscape:export-filename="C:\Users\joann\OneDrive\Escritorio\escritorio\proyectos Ai\Maythe's Sales\g3437.png"
     inkscape:export-xdpi="96"
     inkscape:export-ydpi="96">
    <path
       class="cls-1"
       d="m 45.364999,3.6699999 a 6.86,6.86 0 0 0 -1,0.07 8,8 0 0 0 -6.63,8.0800001 7.91,7.91 0 0 0 7.64,8.15 7.15,7.15 0 0 0 1.68,-0.2 8.05,8.05 0 0 0 6,-8 7.9,7.9 0 0 0 -7.69,-8.1000001 z m 1,12.0700001 -1.34,-8.0000001 a 1.84,1.84 0 0 1 0.33,0 4,4 0 0 1 3.82,4.0800001 4,4 0 0 1 -2.8,3.92 z"
       id="path8"
       inkscape:export-filename="C:\Users\joann\OneDrive\Escritorio\escritorio\proyectos Ai\Maythe's Sales\path8.png"
       inkscape:export-xdpi="96"
       inkscape:export-ydpi="96" />
    <path
       class="cls-2"
       d="m 18.284999,11.82 a 7.91,7.91 0 0 1 -7.64,8.15 7.58,7.58 0 0 1 -6.6999998,-4.23 l 3.14,-2.44 a 3.83,3.83 0 0 0 3.5599998,2.62 4,4 0 0 0 3.82,-4.07 4.2,4.2 0 0 0 -1.4,-3.1600001 l 3.13,-2.43 a 8.37,8.37 0 0 1 2.09,5.5600001 z"
       id="path10"
       inkscape:export-filename="C:\Users\joann\OneDrive\Escritorio\escritorio\proyectos Ai\Maythe's Sales\path8.png"
       inkscape:export-xdpi="96"
       inkscape:export-ydpi="96" />
    <path
       class="cls-1"
       d="m 16.219088,6.2349999 -3.13,2.43 -5.9999998,4.6400001 -3.14,2.44 a 8.56,8.56 0 0 1 -0.92,-3.92 7.9,7.9 0 0 1 7.6399998,-8.1500001 7.35,7.35 0 0 1 5.55,2.56 z"
       id="path12"
       inkscape:export-filename="C:\Users\joann\OneDrive\Escritorio\escritorio\proyectos Ai\Maythe's Sales\path8.png"
       inkscape:export-xdpi="96"
       inkscape:export-ydpi="96" />
    <path
       class="cls-3"
       d="M 13.085881,8.6950009 7.0858816,13.335001 a 4.27,4.27 0 0 1 -0.26,-1.48 4,4 0 0 1 3.8199994,-4.0800001 3.69,3.69 0 0 1 2.44,0.92 z"
       id="path14"
       inkscape:export-filename="C:\Users\joann\OneDrive\Escritorio\escritorio\proyectos Ai\Maythe's Sales\path8.png"
       inkscape:export-xdpi="96"
       inkscape:export-ydpi="96" />
    <path
       class="cls-4"
       d="m 49.184999,11.82 a 4,4 0 0 1 -2.81,3.92 l -1.34,-8.0000001 a 1.84,1.84 0 0 1 0.33,0 4,4 0 0 1 3.82,4.0800001 z"
       id="path16"
       inkscape:export-filename="C:\Users\joann\OneDrive\Escritorio\escritorio\proyectos Ai\Maythe's Sales\path8.png"
       inkscape:export-xdpi="96"
       inkscape:export-ydpi="96" />
    <path
       class="cls-3"
       d="m 46.354999,15.66 a 3.38,3.38 0 0 1 -1,0.15 4,4 0 0 1 -3.82,-4.07 4,4 0 0 1 3.49,-4.0000001 z"
       id="path42"
       inkscape:export-filename="C:\Users\joann\OneDrive\Escritorio\escritorio\proyectos Ai\Maythe's Sales\path8.png"
       inkscape:export-xdpi="96"
       inkscape:export-ydpi="96" />
    <path
       class="cls-6"
       d="m 14.464999,11.82 a 4,4 0 0 1 -3.82,4.1 3.83,3.83 0 0 1 -3.5599998,-2.59 L 13.084999,8.6899999 a 4.2,4.2 0 0 1 1.38,3.1300001 z"
       id="path44"
       inkscape:export-filename="C:\Users\joann\OneDrive\Escritorio\escritorio\proyectos Ai\Maythe's Sales\path8.png"
       inkscape:export-xdpi="96"
       inkscape:export-ydpi="96" />
    <g
       id="Capa_1"
       data-name="Capa 1"
       transform="translate(-1.6950008,-3.4900001)"
       inkscape:export-filename="C:\Users\joann\OneDrive\Escritorio\escritorio\proyectos Ai\Maythe's Sales\path8.png"
       inkscape:export-xdpi="96"
       inkscape:export-ydpi="96">
      <path
         class="cls-3"
         d="m 40,64.75 c -0.41,0 -0.8,0 -1.21,0 -13.51,-0.47 -24.1,-9 -24.1,-19.49 a 15.2,15.2 0 0 1 0.89,-5.12 24.24,24.24 0 0 0 1.13,-4.3 C 18.49,23.52 28.29,14.6 40,14.6 c 11.71,0 21.51,8.92 23.29,21.21 a 23.4,23.4 0 0 0 1.13,4.3 15.2,15.2 0 0 1 0.89,5.12 c 0,10.45 -10.59,19 -24.11,19.49 -0.4,0.02 -0.79,0.03 -1.2,0.03 z"
         transform="translate(-10.3,-6.59)"
         id="path71" />
      <path
         class="cls-1"
         d="m 40,15.6 c 11.28,0 20.63,8.82 22.3,20.36 a 24.84,24.84 0 0 0 1.18,4.48 14.32,14.32 0 0 1 0.83,4.79 c 0,9.94 -10.26,18 -23.15,18.49 -0.39,0 -0.77,0 -1.16,0 -0.39,0 -0.77,0 -1.16,0 C 26,63.27 15.69,55.17 15.69,45.23 A 14.32,14.32 0 0 1 16.52,40.44 24.84,24.84 0 0 0 17.7,36 C 19.37,24.42 28.72,15.6 40,15.6 m 0,-2 c -12.21,0 -22.43,9.28 -24.28,22.07 a 21.41,21.41 0 0 1 -1.09,4.1 16.45,16.45 0 0 0 -0.94,5.46 c 0,11 11,20 25.08,20.49 0.39,0 0.81,0 1.23,0 0.42,0 0.84,0 1.26,0 14,-0.49 25.05,-9.49 25.05,-20.49 a 16.45,16.45 0 0 0 -0.94,-5.46 21.41,21.41 0 0 1 -1.09,-4.1 C 62.43,22.88 52.21,13.6 40,13.6 Z"
         transform="translate(-10.3,-6.59)"
         id="path73" />
      <path
         class="cls-1"
         d="m 43.82,41.16 c -0.33,1.39 -1.71,3.7 -3.82,3.7 -2.11,0 -3.49,-2.31 -3.82,-3.7 -0.33,-1.39 1.71,-2.22 3.82,-2.22 2.11,0 4.17,0.74 3.82,2.22 z"
         transform="translate(-10.3,-6.59)"
         id="path75" />
      <path
         class="cls-6"
         d="M 30,62.11 C 21.57,59.21 15.69,52.74 15.69,45.23 A 14.27,14.27 0 0 1 16.52,40.44 24,24 0 0 0 17.69,36 23.78,23.78 0 0 1 32.38,17 26.13,26.13 0 0 0 20.65,35.45 a 27.06,27.06 0 0 1 -1.28,4.87 15.39,15.39 0 0 0 -0.9,5.19 c 0,6.91 4.53,13 11.53,16.6 z"
         transform="translate(-10.3,-6.59)"
         id="path77" />
    </g>
    <g
       id="Capa_5"
       data-name="Capa 5"
       transform="translate(-1.6950008,-3.4900001)"
       inkscape:export-filename="C:\Users\joann\OneDrive\Escritorio\escritorio\proyectos Ai\Maythe's Sales\path8.png"
       inkscape:export-xdpi="96"
       inkscape:export-ydpi="96">
      <path
         class="cls-8"
         d="m 49.33,47.34 c -2.77,3 -2.31,7.23 0.7,9.22"
         transform="translate(-10.3,-6.59)"
         id="path80" />
      <path
         class="cls-8"
         d="m 30.67,47.34 c 2.77,3 2.31,7.23 -0.7,9.22"
         transform="translate(-10.3,-6.59)"
         id="path82" />
      <path
         class="cls-9"
         d="m 40,47.93 c 0,4 -6.25,3.12 -6.25,3.12 v 2.22 a 6.27,6.27 0 0 0 0.72,3 c 2.2,4.09 8.86,4.09 11.06,0 a 6.27,6.27 0 0 0 0.72,-3 v -2.22 c 0,0 -6.25,0.86 -6.25,-3.12 z"
         transform="translate(-10.3,-6.59)"
         id="path84" />
      <path
         class="cls-10"
         d="m 45.53,56.31 c -0.55,1.0225 -1.37875,1.789375 -2.346875,2.300625 C 42.215,59.121875 41.1075,59.3775 40,59.3775 c -1.1075,0 -2.215,-0.255625 -3.183125,-0.766875 C 35.84875,58.099375 35.02,57.3325 34.47,56.31 c 0.492984,-1.257143 1.295542,-1.853784 2.258855,-2.13614 0.963314,-0.282355 2.039629,0.489761 3.175637,0.489761 1.136008,0 2.331708,-0.772116 3.318899,-0.489761 0.98719,0.282356 1.813625,0.878997 2.306609,2.13614 z"
         transform="translate(-10.3,-6.59)"
         id="path86"
         sodipodi:nodetypes="cssscsssc" />
    </g>
    <g
       id="Capa_3"
       data-name="Capa 3"
       transform="translate(-1.6950008,-3.4900001)"
       inkscape:export-filename="C:\Users\joann\OneDrive\Escritorio\escritorio\proyectos Ai\Maythe's Sales\path8.png"
       inkscape:export-xdpi="96"
       inkscape:export-ydpi="96">
      <path
         class="cls-1"
         d="m 51,45 c -2.87,0 -3.59,-2.37 -4.18,-4.27 a 12,12 0 0 0 -0.73,-2 l -0.48,-0.92 c -1.29,-2.43 -2.3,-4.36 -1.26,-6.71 a 4.6,4.6 0 0 1 4.25,-2.91 c 2.56,0 5,2 6.49,5.31 1.15,2.62 1.94,6.6 0.35,9.19 A 4.89,4.89 0 0 1 51.31,45 Z"
         transform="translate(-10.3,-6.59)"
         id="path89" />
      <path
         class="cls-1"
         d="m 48.6,29.23 c 1.93,0 4.16,1.5 5.58,4.72 1.74,4 2.06,9.79 -2.93,10.08 H 51 c -3,0 -2.83,-3.41 -4,-5.73 -1.51,-2.92 -2.66,-4.62 -1.71,-6.77 a 3.58,3.58 0 0 1 3.33,-2.31 m 0,-2 v 0 a 5.58,5.58 0 0 0 -5.16,3.51 c -1.24,2.79 -0.07,5 1.28,7.58 0.16,0.29 0.32,0.59 0.48,0.91 a 11.61,11.61 0 0 1 0.67,1.83 c 0.57,1.86 1.52,5 5.13,5 h 0.37 a 5.87,5.87 0 0 0 4.93,-2.78 c 1.78,-2.91 1,-7.13 -0.29,-10.11 -1.61,-3.65 -4.45,-5.91 -7.41,-5.91 z"
         transform="translate(-10.3,-6.59)"
         id="path91" />
      <path
         class="cls-1"
         d="m 29.12,45 h -0.31 a 4.92,4.92 0 0 1 -4.14,-2.3 c -1.58,-2.59 -0.79,-6.57 0.36,-9.19 1.44,-3.28 3.93,-5.31 6.49,-5.31 a 4.6,4.6 0 0 1 4.25,2.91 c 1,2.36 0,4.28 -1.26,6.71 l -0.48,0.92 a 12,12 0 0 0 -0.73,2 C 32.71,42.67 32,45 29.12,45 Z"
         transform="translate(-10.3,-6.59)"
         id="path93" />
      <path
         class="cls-1"
         d="m 31.52,29.23 a 3.58,3.58 0 0 1 3.33,2.31 c 0.95,2.15 -0.2,3.85 -1.71,6.77 -1.19,2.32 -1,5.73 -4,5.73 h -0.25 c -5,-0.29 -4.67,-6.12 -2.93,-10.08 1.42,-3.22 3.65,-4.72 5.58,-4.72 m 0,-2 c -3,0 -5.8,2.26 -7.41,5.91 -1.31,3 -2.07,7.2 -0.29,10.11 A 5.87,5.87 0 0 0 28.75,46 h 0.37 c 3.6,0 4.56,-3.12 5.13,-5 a 11.61,11.61 0 0 1 0.67,-1.83 c 0.16,-0.32 0.32,-0.62 0.48,-0.91 1.35,-2.57 2.52,-4.79 1.28,-7.58 a 5.58,5.58 0 0 0 -5.16,-3.51 z"
         transform="translate(-10.3,-6.59)"
         id="path95" />
    </g>
    <g
       id="Capa_4"
       data-name="Capa 4"
       transform="translate(-1.6950008,-3.4900001)"
       inkscape:export-filename="C:\Users\joann\OneDrive\Escritorio\escritorio\proyectos Ai\Maythe's Sales\path8.png"
       inkscape:export-xdpi="96"
       inkscape:export-ydpi="96">
      <path
         class="cls-11"
         d="m 52.34,36.38 c 0.71,1.13 -1.11,-1 -2.81,-1 -1.7,0 -3,2.13 -2.47,1 0.53,-1.13 0.86,-2.26 2.56,-2.26 1.7,0 2.18,1.38 2.72,2.26 z"
         transform="translate(-10.3,-6.59)"
         id="path98" />
      <path
         class="cls-11"
         d="m 32.9,36.38 c 0.7,1.13 -1.11,-1 -2.82,-1 -1.71,0 -3,2.13 -2.46,1 0.54,-1.13 0.85,-2.26 2.55,-2.26 1.7,0 2.18,1.38 2.73,2.26 z"
         transform="translate(-10.3,-6.59)"
         id="path100" />
    </g>
  </g>
</svg>
