<svg xmlns="http://www.w3.org/2000/svg" viewBox="0 0 56.01 59.16"><defs><style>.cls-1,.cls-9{fill:#101e5a;}.cls-2{fill:#090d49;}.cls-3{fill:#f1f2f3;}.cls-4,.cls-5{fill:#efefef;}.cls-5,.cls-7{opacity:0.11;}.cls-6,.cls-7{fill:#ccc;}.cls-8{fill:none;stroke-miterlimit:10;stroke-width:2px;}.cls-8,.cls-9{stroke:#101e5a;stroke-linecap:round;}.cls-9{stroke-linejoin:round;stroke-width:3px;}.cls-10{fill:#f0f1f2;}.cls-11{fill:#fff;fill-rule:evenodd;}</style></defs><title>Maythe&amp;apos;s Sales icon</title><g id="Capa_2" data-name="Capa 2"><path class="cls-1" d="M57.36,13.75a6.86,6.86,0,0,0-1,.07,8,8,0,0,0-6.63,8.08,7.91,7.91,0,0,0,7.64,8.15,7.15,7.15,0,0,0,1.68-.2,8.05,8.05,0,0,0,6-8A7.9,7.9,0,0,0,57.36,13.75Zm1,12.07-1.34-8a1.84,1.84,0,0,1,.33,0,4,4,0,0,1,3.82,4.08A4,4,0,0,1,58.37,25.82Z" transform="translate(-10.3 -6.59)"/><path class="cls-2" d="M30.28,21.9a7.91,7.91,0,0,1-7.64,8.15,7.58,7.58,0,0,1-6.7-4.23l3.14-2.44A3.83,3.83,0,0,0,22.64,26a4,4,0,0,0,3.82-4.07,4.2,4.2,0,0,0-1.4-3.16l3.13-2.43A8.37,8.37,0,0,1,30.28,21.9Z" transform="translate(-10.3 -6.59)"/><path class="cls-1" d="M28.19,16.31l-3.13,2.43-6,4.64-3.14,2.44A8.56,8.56,0,0,1,15,21.9a7.9,7.9,0,0,1,7.64-8.15A7.35,7.35,0,0,1,28.19,16.31Z" transform="translate(-10.3 -6.59)"/><path class="cls-3" d="M25.06,18.74l-6,4.64a4.27,4.27,0,0,1-.26-1.48,4,4,0,0,1,3.82-4.08A3.69,3.69,0,0,1,25.06,18.74Z" transform="translate(-10.3 -6.59)"/><path class="cls-4" d="M61.18,21.9a4,4,0,0,1-2.81,3.92l-1.34-8a1.84,1.84,0,0,1,.33,0A4,4,0,0,1,61.18,21.9Z" transform="translate(-10.3 -6.59)"/><path class="cls-5" d="M52.45,31.08l-.4.85,2.5-2.58c-1.07,1-1.68.91-1.83-.16-1-2.08-.2-4.05,2.48-5.92C57,19.52,58.52,15.39,60.9,12l-1.44,1.44c4.33,1.76,4.61,6.43,3.21,10.45a6.06,6.06,0,0,0,0,2.58c0,.08.23,1.07.5.58a12,12,0,0,0,2.24-5.44A9.46,9.46,0,0,0,65.12,17a21.37,21.37,0,0,0-3.4-6.9c-.27-.41-1.92,2.17-1.95,2.22a29.08,29.08,0,0,0-2,3.51,35.09,35.09,0,0,1-1.42,3.27A62.68,62.68,0,0,1,52.9,25,29.46,29.46,0,0,1,48,30.44c-.11.15-.09.26.08.34a7,7,0,0,0,2.15,1.59c1,.39.66.34,1.92.15.52-.08,1.38-1.14,1.64-1.41a5.33,5.33,0,0,0,1.36-1.68l.33-.95c.21-.61-.82.16-.86.2A8.25,8.25,0,0,0,52.45,31.08Z" transform="translate(-10.3 -6.59)"/><path class="cls-5" d="M52.73,33.06c-1.57,1-3.15.82-4.72-.67l.12.48c3-4.28,6.31-8.34,9.3-12.64,2-2.86,3.66-6.17,6-8.72l-.65-.11a13.94,13.94,0,0,1,2.37,9.54,28.86,28.86,0,0,1-3.7,11.37.47.47,0,0,0,.84.41,20.55,20.55,0,0,0,3.29-7.27,32.37,32.37,0,0,0,.61-4.26,18.69,18.69,0,0,0-1.34-7.93,10.24,10.24,0,0,0-1.42-2c-.07-.1-.54-.24-.65-.11-2.21,2.75-4,5.81-6,8.7A135.49,135.49,0,0,1,46.4,33.32a.3.3,0,0,0,0,.37c1.18,1.2,2.21,2.47,4,2.5,1,0,1.12-.42,1.75-1.18.3-.36,1.16-1.22,1.13-1.73C53.22,33,53,32.77,52.73,33.06Z" transform="translate(-10.3 -6.59)"/><path class="cls-5" d="M53.59,28.81l3.86-6.1L63,20l-6.93,1.51,6,.37L54,20.53l1.87.68-4.54-2c-.39-.16-.27,0-.22.28l.57.61c.73.65,1.48,1.27,2.24,1.88,1.17.95,2.35,1.89,3.55,2.79.11.07,1.44,1.21,1.74,1l4.44-7.46a.87.87,0,0,0,.33-.74A2.42,2.42,0,0,0,63.51,16a8.75,8.75,0,0,0-1.72-3.53,2.06,2.06,0,0,0-.48,1.36c-.3,1.76-.55,3.52-.77,5.29,0,.2-1.26,6.4-.5,6.74s1.59.7,2.39,1L60.8,14.29A18.35,18.35,0,0,1,57,20.89c-2.36,2.53-4.91,4.89-7.37,7.31l-.27.28a4.79,4.79,0,0,0,3,1.54,2,2,0,0,0,1.27-.51q2.11-1.35,4.19-2.79t4.11-2.91a2,2,0,0,0,.93-1,5.63,5.63,0,0,0,.3-2.76,2.06,2.06,0,0,0-1.2.7c-1.3,1.11-2.58,2.24-3.83,3.41s-2.5,2.32-3.71,3.52A2,2,0,0,0,53.59,28.81Z" transform="translate(-10.3 -6.59)"/><path class="cls-5" d="M52.35,30.64l-.33.92,7.1-6.75-7.48,6.35,7-5.33-6.76,4,6.79-3.7-1.75.51,1.16-.12a11.09,11.09,0,0,1,.51-2.84c.72-3.34,1.13-6.93,1.66-10.24.06-.34-.17-.2-.33-.12-.68.33-1,2.13-1.27,2.79-.44,1.14-.88,2.28-1.27,3.45-.08.26-.54,1.29-.26,1.6q3.82,5.73,5.13,2A5.43,5.43,0,0,0,63.12,20c-.13-2.62-1.66-4.7-3-6.88-.13-.2-1.92,4-1.88,3.86-.18.48-1.71,3.44-1.17,4.13a9.42,9.42,0,0,0,1.35,1.47l.78-7.29A32.18,32.18,0,0,1,56.64,21a14.13,14.13,0,0,1-3.09,3.72A47.91,47.91,0,0,1,48.26,30l-.2.27a3.71,3.71,0,0,0,3.86,1.58A1.59,1.59,0,0,0,53,31.3q1.69-1.44,3.32-3t3.22-3.08a1.59,1.59,0,0,0,.66-1l.09-1.4a1.63,1.63,0,0,0-1.06.64c-.78.73-1.54,1.47-2.28,2.23-.94.93-1.87,1.88-2.79,2.84A13.86,13.86,0,0,0,52.35,30.64Z" transform="translate(-10.3 -6.59)"/><path class="cls-5" d="M51.63,30.85l-.44.69,1.73-1.65-.85.11c-1.06.06-1.51-.42-1.32-1.44a1.81,1.81,0,0,1,.8-2.39c1.1-1.46,2.13-3,3.08-4.52,2.3-3.53,4.29-7.35,6.83-10.71L61,11.1a8,8,0,0,1,3.32,6A16.1,16.1,0,0,1,63,26c-.1.28-.31,1.05-.11,1.31s.45.34.59.06c1.63-3.19,2.8-6,2.59-9.71-.19-3.52-1.63-6.28-3.42-9.25-.14-.23-.36-.21-.54,0a43.49,43.49,0,0,0-3,4.64c-3.44,5.69-6.89,11.53-11.72,16.18-.18.17-.29.31-.08.52.92.92,2.63,2.95,4.26,2.22a5.9,5.9,0,0,0,2-2.11c.29-.41-.19-.44-.41-.43C52.63,29.47,51.85,30.51,51.63,30.85Z" transform="translate(-10.3 -6.59)"/><path class="cls-5" d="M53.23,28.24l-2.56.61L60,24.93l-5.88,1.39,5.4-.91c-.47-4.26,2.1-21.85,1.31-14q0-.64-.33-.09l-6.62,6.79c-.44.45,2.34,3.4,2.41,3.48.71.86,1.44,1.7,2.2,2.52a1,1,0,0,0,.79.48,9.73,9.73,0,0,0,2.37-2.67,6.31,6.31,0,0,0,1.42-3.19c.32-2.91-.89-5.23-2.32-7.66a1.73,1.73,0,0,0-.62,1.12q-.72,2.23-1.32,4.5c-.43,1.5-.81,3-1.17,4.54a1.72,1.72,0,0,0,0,1.28L59,24.69l.58-10.78a22.76,22.76,0,0,1-4.43,7.69c-1.95,2.1-4,4.1-6,6.12L48.9,28a4.72,4.72,0,0,0,3,1.56,1.4,1.4,0,0,0,1.1-.3c1.23-.66,2.43-1.34,3.62-2S59,25.74,60.18,25a1.4,1.4,0,0,0,.79-.81,4.45,4.45,0,0,0,.43-2.59,1.41,1.41,0,0,0-1,.46c-1.12.83-2.21,1.69-3.28,2.58S53.66,26.86,53.23,28.24Z" transform="translate(-10.3 -6.59)"/><path class="cls-5" d="M52.59,32.11l-.35.88,7.62-8.36-10.59,6.2,8.72-4a15.26,15.26,0,0,1,.72-3.69q.87-4.28,1.77-8.55l-3.31,6.62,4.93,4.07-2.63-6-.68-.63c-.27-.23-.2-.18-.35.09l.06.74c.16.86.35,1.71.56,2.56.31,1.3.63,2.61,1,3.9,0-.12.59,1.81.73,1.61,1.33-1.83,3-4,2.81-6.47s-1.85-4.57-3.2-6.71c-.18-.29-2,3.4-1.95,3.28-.15.32-1.79,3.06-1.28,3.6a7.16,7.16,0,0,0,1.31,1.15l.84-5.59a28.82,28.82,0,0,1-4.06,7.45,79.55,79.55,0,0,1-6.68,7.06l-.18.28a3.75,3.75,0,0,0,3.76,1.75,1.78,1.78,0,0,0,1.07-.72q1.65-1.68,3.23-3.44t3.12-3.54a1.7,1.7,0,0,0,.62-1.12l.1-1.42a1.81,1.81,0,0,0-1,.79c-.76.84-1.5,1.7-2.23,2.57-.91,1.08-1.82,2.17-2.7,3.27A15,15,0,0,0,52.59,32.11Z" transform="translate(-10.3 -6.59)"/><path class="cls-5" d="M50.72,29.19l-.31.8,2.39-1.82-1.14.55.87-.25c-1.07.16-1.46-.42-1.15-1.73l2-3.7c1.93-3.59,3.29-7.58,5.46-11l-.5.37a7.17,7.17,0,0,1,4.34,7.23,12.69,12.69,0,0,1-.94,5c-.07.23-.27.87-.06,1.07s.42.27.54,0a15.79,15.79,0,0,0,2-7.23c0-4.14-1.6-7.34-3.62-10.84a.54.54,0,0,0-.5.37,51.51,51.51,0,0,0-4,7.26,54.74,54.74,0,0,1-3.44,5.93,39.14,39.14,0,0,1-5.91,6.7.2.2,0,0,0,0,.35c1.2,1.18,2.1,2.19,3.85,2,.64-.07,2.58-1.19,2.69-1.87l.11-.76C53.52,26.94,50.93,28.66,50.72,29.19Z" transform="translate(-10.3 -6.59)"/><path class="cls-5" d="M53.57,29.9l-.42,1.27a2.21,2.21,0,0,0,1.25-.81l10-9.06c.51-.46-.75-.23-.64-.25L57.09,22.2l5.79.8L52,19.89c-.4-.17-.28,0-.24.26l.56.67c.72.72,1.47,1.42,2.23,2.1.36.34,4.71,4.74,5.26,4.26l1.2-.32a1.54,1.54,0,0,0,.57-1.07c.4-1.41.77-2.84,1.11-4.28s.67-2.87,1-4.31a1.58,1.58,0,0,0,0-1.21l-1.26-2.12a1.91,1.91,0,0,0-.39,1.3c-.17,1.65-.3,3.3-.4,5,0,0-.62,6.27,0,6.31.84,0,1.68.1,2.51.13L61.26,15.39a19.47,19.47,0,0,1-4,6.43c-2.45,2.63-5.1,5.1-7.68,7.6l-.24.31a4.78,4.78,0,0,0,2.84,1.66,2.2,2.2,0,0,0,1.3-.68c1.44-1.1,2.85-2.22,4.24-3.38s2.78-2.3,4.14-3.5a2.22,2.22,0,0,0,.92-1.14,5.68,5.68,0,0,0,.3-2.77,2.36,2.36,0,0,0-1.23.88c-.93.93-1.85,1.88-2.74,2.85q-1.7,1.79-3.35,3.62A21.21,21.21,0,0,0,53.57,29.9Z" transform="translate(-10.3 -6.59)"/><path class="cls-5" d="M52.2,28.88l-.69,1.39,5.13-4L51,30.09,56.09,27l-3.66,1.43,3.41-1.14-1.6,0,.84.14c.67-2,1.56-4,2.28-6a82.33,82.33,0,0,0,2.34-8.75l-1.22,4,1.18-3.4-1.55,3.25a10.29,10.29,0,0,1,2.75.79l-.25-.36-1,1.63c-.65.22.17,3.18.22,3.42s.36,2.5.87,1.86a10.53,10.53,0,0,0,2.49-4.06c1.08-3.75-.92-6.93-2.73-10l-.23.12c-1.73,2.72-1.72,4.84-3.72,8.21L53,23.43a49.85,49.85,0,0,1-5.29,5.29l-.16.21a4.8,4.8,0,0,0,2.88,1.82c.79.3,2-.79,2.67-1.16s1.51-.89,2.25-1.35a5.85,5.85,0,0,0,1.47-1.09l.7-2.11c.26-.79-1.12.29-1.25.39A42.15,42.15,0,0,0,52.2,28.88Z" transform="translate(-10.3 -6.59)"/><path class="cls-5" d="M51,29.06l-.39.7,1.48-1.19q-4.23.09,0-4.91c1.28-1.91,2.53-3.83,3.75-5.78,1.55-2.45,3-5.06,4.64-7.42l-.46.33a6.15,6.15,0,0,1,3.06,5.81,10.9,10.9,0,0,1-1,8.84c-.14.38.39,1.09.62.62,1.17-2.46,1.78-3.44,2.22-6.18a17.62,17.62,0,0,0-.29-7,25,25,0,0,0-2.78-6.11c-.18-.34-.38-.1-.57.15-2.09,2.75-3.6,6-5.43,8.89q-2.07,3.35-4.4,6.51a25.39,25.39,0,0,1-4.85,5.34.24.24,0,0,0,0,.35c1.38,1.37,2.13,2.28,4.07,2.25A3,3,0,0,0,52.44,29l.28-.55c.18-.36-.07-.45-.36-.48S51.13,28.78,51,29.06Z" transform="translate(-10.3 -6.59)"/><path class="cls-5" d="M52.59,31.06l-.31.89,8.24-8.38L52,31.39l9.16-7,2.33-5.28c.08-.22,0-.31-.23-.26l-8.53-.72c-.33-.23-.25-.14-.31.16l.29.79c.42.89.87,1.76,1.34,2.63.17.3,3.21,5.76,3.43,5.54,1.53-1.56,3.86-3.63,4.09-6,.25-2.61-1-4.57-2.34-6.73a1.3,1.3,0,0,0-.47,1c-.28,1.29-.53,2.59-.74,3.89,0,.13-1.11,4.78-.46,5s1.36.45,2.06.63l-1.43-8.58-1.88,3.93a37.8,37.8,0,0,1-2.88,3.3c-2.21,2.35-4.54,4.56-6.88,6.78l-.22.3a3.75,3.75,0,0,0,3.8,1.62,2.19,2.19,0,0,0,1.22-.79q2-1.82,3.84-3.71T60.94,24a2.09,2.09,0,0,0,.79-1.21l.05-1.47a2.21,2.21,0,0,0-1.19.86c-.9.91-1.78,1.84-2.65,2.78-1.09,1.17-2.17,2.34-3.23,3.54A18.68,18.68,0,0,0,52.59,31.06Z" transform="translate(-10.3 -6.59)"/><path class="cls-3" d="M58.37,25.82a3.38,3.38,0,0,1-1,.15,4,4,0,0,1-3.82-4.07,4,4,0,0,1,3.49-4Z" transform="translate(-10.3 -6.59)"/><path class="cls-6" d="M26.46,21.9A4,4,0,0,1,22.64,26a3.83,3.83,0,0,1-3.56-2.59l6-4.64A4.2,4.2,0,0,1,26.46,21.9Z" transform="translate(-10.3 -6.59)"/><path class="cls-7" d="M17.73,31.08l-.43.75L20.06,29l-2,.44a2.87,2.87,0,0,1-2.58-2.76,3.4,3.4,0,0,1-1.23-3.41c-.16-1.47.59-2.48,2.28-3l2.55,0L21.85,20c3.66-.31,7.9-1.38,11.58-1l-2.17-.59a6.87,6.87,0,0,1-.55,6.07,4.31,4.31,0,0,0,0,2.17c.05.13.2.88.51.48.67-.81,1.32-1.64,1.95-2.48a19,19,0,0,0,2.5-5.82c.19-.57-3.75-.67-3.93-.67-.94,0-1.88,0-2.82,0a14.64,14.64,0,0,1-3.72.57,20.68,20.68,0,0,1-4.91.05,18.6,18.6,0,0,1-6.23-1.47.23.23,0,0,0-.33.11c-1.31,2.7-2.45,5.4-2.25,8.47a7.19,7.19,0,0,0,4,6.3c2.32,1,4-1.56,5.07-3.37.33-.59,0-.65-.44-.41A8.27,8.27,0,0,0,17.73,31.08Z" transform="translate(-10.3 -6.59)"/><path class="cls-7" d="M18,33.06q-10.61-.6-4.16-14.22l-.39.37a91.1,91.1,0,0,0,14,2.56c2.88.33,5.91.34,8.73,1.06l-.27-.55a16.83,16.83,0,0,1-5.41,8.13c-.34.35,0,1.66.56,1.06a27.28,27.28,0,0,0,3.6-4.16C36.2,25,35.59,26,37,22.67a.36.36,0,0,0-.26-.54A77.79,77.79,0,0,0,27.64,21,84.39,84.39,0,0,1,13.7,18.51c-.18-.05-.33.26-.39.38a19,19,0,0,0-2.55,6c-.35,1.55-.7,4.62-.19,6.21.57,1.78,2.48,4.23,4.39,4.81,1.44.44,1.51.08,2.43-.91.3-.33,1.16-1.24,1.12-1.73C18.49,33,18.34,32.83,18,33.06Z" transform="translate(-10.3 -6.59)"/><path class="cls-7" d="M18.87,28.81l-.18.84,9.37-8L15.37,28.26l11.39-3.49,5.09-4.14c.37-.3.32-.41-.14-.32L18.19,22.77c-.38.07-.28,0-.14.33l.71.41c.86.4,1.74.78,2.63,1.14,1.36.56,2.72,1.11,4.11,1.61.14,0,1.65.73,1.89.41a10.42,10.42,0,0,0,2.72-2.78,9.93,9.93,0,0,0,2-3.57l-12,5.56c.16.79.34,1.58.53,2.36l9.84-7.9a13.4,13.4,0,0,1-5.91-.11c-2.89-.74-5.73-1.75-8.56-2.69l-.35-.1c-1.25,2.72-2.28,5.25-2,8.3a2.82,2.82,0,0,0,1.47,2.79,4.52,4.52,0,0,0,2.72,1.38,1.81,1.81,0,0,0,1.25-.49c1.4-.87,2.77-1.77,4.13-2.7s2.71-1.86,4-2.83a1.91,1.91,0,0,0,.92-1A6.79,6.79,0,0,0,28.41,20a2.06,2.06,0,0,0-1.21.7c-1.29,1.11-2.57,2.24-3.82,3.41s-2.5,2.32-3.72,3.52A2,2,0,0,0,18.87,28.81Z" transform="translate(-10.3 -6.59)"/><path class="cls-7" d="M17.63,30.64l-.27.83,7.76-7.16L13.45,28l8.77-1.58-5.48-.33,4.15.45-1.41-.69.7.56-.33-1.07a.79.79,0,0,0,.78-.18l.73-.46a55.65,55.65,0,0,1,5.82-3.32l-3.53,1.46a59.41,59.41,0,0,0,7.13-2.58l-2,.45,2.07-.32c.32-.05,1-.12.8-.44s-2.65-.1-2.32-.11c-1.4.06-2.81.16-4.2.28-.07,0-2.14,0-2.4.52q5.5,8.1,7.55,3.08A10.82,10.82,0,0,0,31.73,20c.13-.37-4.67-.06-4.54-.07-.55,0-4.07-.12-4.5.68a15.17,15.17,0,0,0-.91,1.91l7.69-2.15a22.87,22.87,0,0,1-14.63-1.34l-.27,0c-1.38,2.74-2.36,5.22-2.18,8.34a3.25,3.25,0,0,0,1.29,3,3.55,3.55,0,0,0,3.59,1.45,1.56,1.56,0,0,0,1.06-.57Q20,29.81,21.61,28.3t3.18-3.05a1.52,1.52,0,0,0,.66-1l.1-1.41a1.63,1.63,0,0,0-1.05.64c-.78.73-1.54,1.47-2.28,2.23-.95.93-1.87,1.88-2.79,2.84A13.32,13.32,0,0,0,17.63,30.64Z" transform="translate(-10.3 -6.59)"/><path class="cls-7" d="M17.16,30.52q-8.43-9-.58-12.85a51.23,51.23,0,0,0,6.06.51c3.68.14,7.61-.32,11.24.31l-.34-.28L31.5,26c-.11.21-.39.86-.23,1.08s.41.36.58.12A16.84,16.84,0,0,0,34.61,23a17.64,17.64,0,0,0,2-5,.35.35,0,0,0-.34-.28c-3-.53-6.1-.28-9.12-.35a49.29,49.29,0,0,1-6.76-.43A20,20,0,0,1,14,15.35a.3.3,0,0,0-.32.13c-1.52,2.89-2.84,5.63-2.75,9a8.05,8.05,0,0,0,3.15,6.5c.55.41,1.8,1.23,2.63,1s1.36-1.2,1.83-1.7C19.6,29,17.37,29.54,17.16,30.52Z" transform="translate(-10.3 -6.59)"/><path class="cls-7" d="M18.51,28.24l-.21.9,7.29-5.7L17,28.39,25.36,25l-5.67,1.4,4.94-1L23,25.37l1.17.23-9.39-6,7,6c2.11-3.41,5.46-5.62,10-6.6q.47-.36-.12-.33-4.2,7.63-1.6,3.75A11.08,11.08,0,0,0,32,18.79a1.48,1.48,0,0,0-1.18.11c-1.36.43-2.72.89-4.06,1.38s-2.69,1-4,1.54a1.51,1.51,0,0,0-1,.67c-.12.75-.21,1.5-.26,2.26l8.34-5.6a15.47,15.47,0,0,1-5.75.23,55.06,55.06,0,0,1-5.9-1.68c-2.14-1.95-3.43-1.89-3.85.18a12.71,12.71,0,0,0-1.3,7.31c.35,2.35,2.2,3.67,4.36,4.25a1.38,1.38,0,0,0,1.08-.29c1.2-.63,2.38-1.3,3.55-2S24.37,25.77,25.5,25a1.35,1.35,0,0,0,.78-.81,5.11,5.11,0,0,0,.4-2.65,1.41,1.41,0,0,0-1,.46c-1.12.83-2.21,1.69-3.28,2.58C21.48,25.34,18.82,26.92,18.51,28.24Z" transform="translate(-10.3 -6.59)"/><path class="cls-7" d="M17.86,32.11l-.28.78,6.82-7.66-7.14,7.11,6.64-6.08-4.33,3.09,4.34-2.84a6.41,6.41,0,0,1-4.55-.32l.66.47L19.7,25.5a1,1,0,0,0,.92-.24,47.91,47.91,0,0,0,4.31-2.39l-2.42,1c-3.47,1.19,7.4-2.44,8.74-2.56.33,0,1,0,.87-.36s-2.71-.37-2.36-.35c-1.44-.09-2.88-.14-4.32-.17-.07,0-2.18-.2-2.51.27q5.71,9.76,7.89,4.16a11,11,0,0,0,1.42-3.81c.13-.44-4.74-.56-4.64-.55-.56,0-4.13-.57-4.67.2a16.46,16.46,0,0,0-1.1,1.74l7.34-1.13a17.08,17.08,0,0,1-9.55.21,28.74,28.74,0,0,1-4.35-1.24l-.25,0a16.09,16.09,0,0,0-2.2,8.25A3.34,3.34,0,0,0,14,31.6a3.69,3.69,0,0,0,3.51,1.64,1.73,1.73,0,0,0,1.06-.71q1.64-1.66,3.2-3.4t3.08-3.49a1.74,1.74,0,0,0,.62-1.12l.12-1.42a1.81,1.81,0,0,0-1,.79c-.76.84-1.51,1.7-2.23,2.57-.92,1.08-1.82,2.17-2.71,3.27A16.32,16.32,0,0,0,17.86,32.11Z" transform="translate(-10.3 -6.59)"/><path class="cls-7" d="M16,29.19l-.29.74,2.35-1.85L17,28.57l.86-.27A4.28,4.28,0,0,1,15,26.43a5.42,5.42,0,0,1-1.18-3.26A2.3,2.3,0,0,1,15,20.26a3.12,3.12,0,0,1,3.6-1.12l2.91-.38c3.52-.54,7.08-1.86,10.66-1.87l-.94-.28a9.08,9.08,0,0,1-.49,8.33c-.1.26-.13.56.24.61s.65-.6.76-.83a38.38,38.38,0,0,0,2.87-8.42.39.39,0,0,0-.38-.27,18.37,18.37,0,0,0-4,.1c-2,.24-3.87.66-5.84.79a12.18,12.18,0,0,1-4.8-.34,14.68,14.68,0,0,1-6.49-1.64q-.26-.16-.33.12c-1.66,3.19-3.45,7.29-1.9,11,.88,2.06,2.57,4.4,5,4.2.66-.05,2.51-1.22,2.65-1.9l.13-.66c.13-.63-.9,0-1,0A4.17,4.17,0,0,0,16,29.19Z" transform="translate(-10.3 -6.59)"/><path class="cls-7" d="M18.72,30.29l-.19.77,8.61-8.8-9.68,7.56,9.76-6L17,26.72l-2.88,1.34,6.59-.6,11.4-5.68q-7.32.87-14.64,1.79l.2.28a13.21,13.21,0,0,0,2.38,1.26c1.17.54,2.35,1.07,3.54,1.57s2.59,1.44,3.89,1.42a2.69,2.69,0,0,0,2.19-1.77,12,12,0,0,0,2.83-4.54L20.35,27.45l.9,2.17,9.69-7.95a16.3,16.3,0,0,1-6.14-.35c-2.83-.73-5.6-1.69-8.38-2.61l-.34-.05c-1.32,2.68-2.36,5.17-2.32,8.21a2.72,2.72,0,0,0,1.31,2.86,4.72,4.72,0,0,0,2.61,1.52A2.13,2.13,0,0,0,19,30.59c1.41-1.07,2.81-2.16,4.17-3.29s2.74-2.24,4.08-3.41a2.1,2.1,0,0,0,.9-1.12,6.25,6.25,0,0,0,.24-2.85,2.37,2.37,0,0,0-1.22.88c-1.32,1.33-2.61,2.67-3.87,4.05S20.74,27.59,19.51,29A2.37,2.37,0,0,0,18.72,30.29Z" transform="translate(-10.3 -6.59)"/><path class="cls-7" d="M17.1,29.36l-.27.85,4.07-3.33L16.36,30l5-3-3.55,1.44,3.32-1.16a5.48,5.48,0,0,1-4.05-1.83c-.17-1.42.3-2.19,1.4-2.29,3.79-1.11,7.25-3,11-4.35l-3.59,1.08,5.48-1.47-3.7.72,3.66-.55-4.4.32,1.22,2.25a8.18,8.18,0,0,0,.43,3.21c.07.23.22,1.1.6.65a18.27,18.27,0,0,0,3.77-7c.11-.35-2.21-.12-2.42-.1a11.73,11.73,0,0,0-3.64.61l-2.11,1,4.54-1.29a16.92,16.92,0,0,1-9.24.83,31.24,31.24,0,0,1-6.26-1.92l-.24-.08c-1.48,3-3.07,6.65-1.7,10a7.41,7.41,0,0,0,2.7,3.11,4.61,4.61,0,0,0,2.25.26c1,.09,2.5-1.43,3.18-1.95s2.6-1.58,2.73-2.56l.16-1.18a.84.84,0,0,0-.8.28c-.57.41-1.13.84-1.66,1.29-.69.55-1.36,1.12-2,1.7A5.89,5.89,0,0,0,17.1,29.36Z" transform="translate(-10.3 -6.59)"/><path class="cls-7" d="M16.25,29.06l-.36.6,1.7-1.27a4,4,0,0,1-2.75-1.45,7.15,7.15,0,0,1-1.13-7.09A3.58,3.58,0,0,1,17.56,18a64.78,64.78,0,0,0,9-.64A33.18,33.18,0,0,1,33,16.73l-.37-.24A9.93,9.93,0,0,1,31.52,25c-.33.73.63.55.9,0a47.57,47.57,0,0,0,3.28-9,.35.35,0,0,0-.36-.24,23.76,23.76,0,0,0-5.59.17,45.58,45.58,0,0,1-9.7.11,21.64,21.64,0,0,1-6.51-1.83.21.21,0,0,0-.34.11c-1.86,3.36-3.75,7.29-2.31,11.23.79,2.17,2.77,4.46,5.16,4.58.52,0,1.44-.86,1.7-1.27l.25-.39c.22-.35-.1-.46-.36-.48S16.42,28.77,16.25,29.06Z" transform="translate(-10.3 -6.59)"/><path class="cls-7" d="M17.87,31.06l-.35,1.15,9.12-9.28L14,28.23,24.16,25.8,31.4,22q.51-.32-.09-.33a11.86,11.86,0,0,0-2.63.5c-2.41.57-5.31,1-7.53,2.15q6.42,5.68,8.81,1a9.11,9.11,0,0,0,1.68-3.52,1.52,1.52,0,0,0-1.2,0c-1.43.3-2.85.65-4.26,1-.09,0-5.33,1.08-5.26,1.76s.16,1.39.26,2.09L29.69,22c-5,.44-9.46-1.07-14.14-2.62l-.31,0a17.26,17.26,0,0,0-2.43,8.35,3,3,0,0,0,1.22,3,4.72,4.72,0,0,0,2.6,1.66,2,2,0,0,0,1.24-.64c1.36-1,2.69-2.12,4-3.22s2.63-2.21,3.91-3.35a2.11,2.11,0,0,0,.86-1.1,5.48,5.48,0,0,0,.42-2.74,2.21,2.21,0,0,0-1.19.86C25,23.08,24.08,24,23.22,25c-1.09,1.17-2.17,2.34-3.24,3.54A18.61,18.61,0,0,0,17.87,31.06Z" transform="translate(-10.3 -6.59)"/></g><g id="Capa_1" data-name="Capa 1"><path class="cls-3" d="M40,64.75c-.41,0-.8,0-1.21,0-13.51-.47-24.1-9-24.1-19.49a15.2,15.2,0,0,1,.89-5.12,24.24,24.24,0,0,0,1.13-4.3C18.49,23.52,28.29,14.6,40,14.6s21.51,8.92,23.29,21.21a23.4,23.4,0,0,0,1.13,4.3,15.2,15.2,0,0,1,.89,5.12c0,10.45-10.59,19-24.11,19.49C40.8,64.74,40.41,64.75,40,64.75Z" transform="translate(-10.3 -6.59)"/><path class="cls-1" d="M40,15.6c11.28,0,20.63,8.82,22.3,20.36a24.84,24.84,0,0,0,1.18,4.48,14.32,14.32,0,0,1,.83,4.79c0,9.94-10.26,18-23.15,18.49-.39,0-.77,0-1.16,0s-.77,0-1.16,0C26,63.27,15.69,55.17,15.69,45.23a14.32,14.32,0,0,1,.83-4.79A24.84,24.84,0,0,0,17.7,36C19.37,24.42,28.72,15.6,40,15.6m0-2c-12.21,0-22.43,9.28-24.28,22.07a21.41,21.41,0,0,1-1.09,4.1,16.45,16.45,0,0,0-.94,5.46c0,11,11,20,25.08,20.49.39,0,.81,0,1.23,0s.84,0,1.26,0c14-.49,25.05-9.49,25.05-20.49a16.45,16.45,0,0,0-.94-5.46,21.41,21.41,0,0,1-1.09-4.1C62.43,22.88,52.21,13.6,40,13.6Z" transform="translate(-10.3 -6.59)"/><path class="cls-1" d="M43.82,41.16c-.33,1.39-1.71,3.7-3.82,3.7s-3.49-2.31-3.82-3.7,1.71-2.22,3.82-2.22S44.17,39.68,43.82,41.16Z" transform="translate(-10.3 -6.59)"/><path class="cls-6" d="M30,62.11c-8.43-2.9-14.31-9.37-14.31-16.88a14.27,14.27,0,0,1,.83-4.79A24,24,0,0,0,17.69,36,23.78,23.78,0,0,1,32.38,17,26.13,26.13,0,0,0,20.65,35.45a27.06,27.06,0,0,1-1.28,4.87,15.39,15.39,0,0,0-.9,5.19C18.47,52.42,23,58.51,30,62.11Z" transform="translate(-10.3 -6.59)"/></g><g id="Capa_5" data-name="Capa 5"><path class="cls-8" d="M49.33,47.34c-2.77,3-2.31,7.23.7,9.22" transform="translate(-10.3 -6.59)"/><path class="cls-8" d="M30.67,47.34c2.77,3,2.31,7.23-.7,9.22" transform="translate(-10.3 -6.59)"/><path class="cls-9" d="M40,47.93c0,4-6.25,3.12-6.25,3.12v2.22a6.27,6.27,0,0,0,.72,3c2.2,4.09,8.86,4.09,11.06,0a6.27,6.27,0,0,0,.72-3V51.05S40,51.91,40,47.93Z" transform="translate(-10.3 -6.59)"/><path class="cls-10" d="M45.53,56.31c-2.2,4.09-8.86,4.09-11.06,0a5.94,5.94,0,0,1,11.06,0Z" transform="translate(-10.3 -6.59)"/></g><g id="Capa_3" data-name="Capa 3"><path class="cls-1" d="M51,45c-2.87,0-3.59-2.37-4.18-4.27a12,12,0,0,0-.73-2l-.48-.92c-1.29-2.43-2.3-4.36-1.26-6.71a4.6,4.6,0,0,1,4.25-2.91c2.56,0,5,2,6.49,5.31,1.15,2.62,1.94,6.6.35,9.19A4.89,4.89,0,0,1,51.31,45Z" transform="translate(-10.3 -6.59)"/><path class="cls-1" d="M48.6,29.23c1.93,0,4.16,1.5,5.58,4.72,1.74,4,2.06,9.79-2.93,10.08H51c-3,0-2.83-3.41-4-5.73-1.51-2.92-2.66-4.62-1.71-6.77a3.58,3.58,0,0,1,3.33-2.31m0-2h0a5.58,5.58,0,0,0-5.16,3.51c-1.24,2.79-.07,5,1.28,7.58.16.29.32.59.48.91a11.61,11.61,0,0,1,.67,1.83c.57,1.86,1.52,5,5.13,5h.37a5.87,5.87,0,0,0,4.93-2.78c1.78-2.91,1-7.13-.29-10.11-1.61-3.65-4.45-5.91-7.41-5.91Z" transform="translate(-10.3 -6.59)"/><path class="cls-1" d="M29.12,45h-.31a4.92,4.92,0,0,1-4.14-2.3c-1.58-2.59-.79-6.57.36-9.19,1.44-3.28,3.93-5.31,6.49-5.31a4.6,4.6,0,0,1,4.25,2.91c1,2.36,0,4.28-1.26,6.71l-.48.92a12,12,0,0,0-.73,2C32.71,42.67,32,45,29.12,45Z" transform="translate(-10.3 -6.59)"/><path class="cls-1" d="M31.52,29.23a3.58,3.58,0,0,1,3.33,2.31c.95,2.15-.2,3.85-1.71,6.77-1.19,2.32-1,5.73-4,5.73h-.25c-5-.29-4.67-6.12-2.93-10.08,1.42-3.22,3.65-4.72,5.58-4.72m0-2c-3,0-5.8,2.26-7.41,5.91-1.31,3-2.07,7.2-.29,10.11A5.87,5.87,0,0,0,28.75,46h.37c3.6,0,4.56-3.12,5.13-5a11.61,11.61,0,0,1,.67-1.83c.16-.32.32-.62.48-.91,1.35-2.57,2.52-4.79,1.28-7.58a5.58,5.58,0,0,0-5.16-3.51Z" transform="translate(-10.3 -6.59)"/></g><g id="Capa_4" data-name="Capa 4"><path class="cls-11" d="M52.34,36.38c.71,1.13-1.11-1-2.81-1s-3,2.13-2.47,1,.86-2.26,2.56-2.26S51.8,35.5,52.34,36.38Z" transform="translate(-10.3 -6.59)"/><path class="cls-11" d="M32.9,36.38c.7,1.13-1.11-1-2.82-1s-3,2.13-2.46,1,.85-2.26,2.55-2.26S32.35,35.5,32.9,36.38Z" transform="translate(-10.3 -6.59)"/></g></svg>