<?xml version="1.0" standalone="no"?><svg xmlns="http://www.w3.org/2000/svg" viewBox="0 0 1440 320"><path fill="#101e5a" fill-opacity="1" d="M0,288L13.3,245.3C26.7,203,53,117,80,101.3C106.7,85,133,139,160,170.7C186.7,203,213,213,240,229.3C266.7,245,293,267,320,229.3C346.7,192,373,96,400,74.7C426.7,53,453,107,480,128C506.7,149,533,139,560,160C586.7,181,613,235,640,245.3C666.7,256,693,224,720,197.3C746.7,171,773,149,800,138.7C826.7,128,853,128,880,117.3C906.7,107,933,85,960,96C986.7,107,1013,149,1040,192C1066.7,235,1093,277,1120,245.3C1146.7,213,1173,107,1200,58.7C1226.7,11,1253,21,1280,58.7C1306.7,96,1333,160,1360,181.3C1386.7,203,1413,181,1427,170.7L1440,160L1440,320L1426.7,320C1413.3,320,1387,320,1360,320C1333.3,320,1307,320,1280,320C1253.3,320,1227,320,1200,320C1173.3,320,1147,320,1120,320C1093.3,320,1067,320,1040,320C1013.3,320,987,320,960,320C933.3,320,907,320,880,320C853.3,320,827,320,800,320C773.3,320,747,320,720,320C693.3,320,667,320,640,320C613.3,320,587,320,560,320C533.3,320,507,320,480,320C453.3,320,427,320,400,320C373.3,320,347,320,320,320C293.3,320,267,320,240,320C213.3,320,187,320,160,320C133.3,320,107,320,80,320C53.3,320,27,320,13,320L0,320Z"></path></svg>